#!OML:ASF C:\ViconDB\ViconDB\414\Spring2016\041811\Spring2016.ASF
:FULLY-SPECIFIED
:DEGREES
246
root 11.8701 17.7334 18.2675 -115.242 -84.2381 119.635
lowerback 12.2849 0.852901 -0.0359738
upperback 0.728575 1.33625 5.50895
thorax -6.27615 0.675934 5.64802
lowerneck 5.45003 -13.8807 -26.2528
upperneck 12.2307 -28.0023 34.9923
head 12.9694 -14.3224 13.8438
rclavicle -1.98785e-015 4.13472e-014
rhumerus -4.2942 -30.3459 -7.31914
rradius 64.7941
rwrist 15.4846
rhand -54.6742 -23.1901
rfingers 7.12502
rthumb -27.0685 -51.2699
lclavicle -1.98785e-015 4.13472e-014
lhumerus -9.60767 18.6559 -1.88802
lradius 44.9794
lwrist 5.06208
lhand -44.3075 34.0562
lfingers 7.12502
lthumb -17.1172 63.3222
rfemur 181.327 40.641 -179.754
rtibia 32.4065
rfoot -9.64972 -52.3687
rtoes -12.9774
lfemur -17.6768 -4.43693 -13.0914
ltibia 38.2016
lfoot -28.4177 12.7805
ltoes -16.2884
247
root 11.86 17.7334 18.2098 -118.763 -83.7825 123.223
lowerback 12.5872 0.929401 0.333583
upperback 0.744592 1.49854 5.71853
thorax -6.44185 0.743866 5.63577
lowerneck 5.64509 -14.0493 -26.2681
upperneck 11.7537 -28.2517 35.2689
head 12.9206 -14.4546 13.8698
rclavicle 7.95139e-015 3.18055e-014
rhumerus -4.12708 -30.695 -7.8533
rradius 64.3776
rwrist 15.6687
rhand -54.8116 -22.9526
rfingers 7.12502
rthumb -27.2 -51.0119
lclavicle 7.95139e-015 3.18055e-014
lhumerus -9.37076 19.1649 -2.19123
lradius 44.9024
lwrist 5.00996
lhand -44.395 34.4841
lfingers 7.12502
lthumb -17.2014 63.7428
rfemur 182.237 40.5719 -179.858
rtibia 32.21
rfoot -8.5589 -51.7632
rtoes -15.4371
lfemur -17.306 -4.49543 -13.1538
ltibia 37.7578
lfoot -28.4896 13.3745
ltoes -16.3274
248
root 11.8472 17.7303 18.1476 -121.552 -83.3253 126.04
lowerback 12.9044 1.01407 0.608094
upperback 0.783885 1.66223 6.02364
thorax -6.59659 0.814289 5.7817
lowerneck 5.9388 -14.1536 -26.4527
upperneck 11.0812 -28.3994 35.7119
head 12.8158 -14.5675 14.0348
rclavicle 1.98785e-015 -2.54444e-014
rhumerus -3.82397 -30.8272 -8.18928
rradius 63.8227
rwrist 15.7041
rhand -54.8975 -23.2551
rfingers 7.12502
rthumb -27.2821 -51.3015
lclavicle 1.98785e-015 -2.54444e-014
lhumerus -9.27303 19.5207 -2.5083
lradius 44.885
lwrist 5.21816
lhand -44.4261 34.3669
lfingers 7.12502
lthumb -17.2314 63.6229
rfemur 183.151 40.7195 -179.852
rtibia 32.0522
rfoot -7.77102 -51.3282
rtoes -16.688
lfemur -16.9222 -4.18076 -13.1775
ltibia 37.3075
lfoot -28.4886 13.6329
ltoes -16.327
249
root 11.8354 17.7224 18.0839 -123.551 -82.6692 128.088
lowerback 13.1632 1.11965 0.793204
upperback 0.869714 1.83428 6.2337
thorax -6.66902 0.889531 5.87229
lowerneck 6.13606 -14.2871 -26.5433
upperneck 10.4525 -28.5825 36.1468
head 12.7464 -14.682 14.1616
rclavicle -1.11319e-014 -2.54444e-014
rhumerus -3.68569 -31.0355 -8.5774
rradius 63.4392
rwrist 15.7313
rhand -54.7834 -23.5279
rfingers 7.12502
rthumb -27.173 -51.5914
lclavicle -1.11319e-014 -2.54444e-014
lhumerus -9.03438 20.1377 -2.73788
lradius 44.7818
lwrist 4.9906
lhand -44.5317 34.5174
lfingers 7.12502
lthumb -17.3329 63.7645
rfemur 184.198 41.0028 -179.882
rtibia 31.9418
rfoot -7.13096 -50.8841
rtoes -16.6985
lfemur -16.5142 -4.32999 -13.4358
ltibia 36.8568
lfoot -28.504 14.2683
ltoes -16.5168
250
root 11.821 17.7209 18.0163 -125.331 -82.0198 129.948
lowerback 13.4809 1.20463 0.937604
upperback 0.8769 1.98411 6.47867
thorax -6.85962 0.957915 6.03052
lowerneck 6.34329 -14.4075 -26.5861
upperneck 9.94409 -28.7398 36.4323
head 12.6593 -14.778 14.2246
rclavicle -1.90833e-014 -2.8625e-014
rhumerus -3.41448 -31.1332 -9.06522
rradius 62.9843
rwrist 15.5534
rhand -54.8003 -23.2694
rfingers 7.12502
rthumb -27.1892 -51.3303
lclavicle -1.90833e-014 -2.8625e-014
lhumerus -8.84359 20.6703 -3.0928
lradius 44.6437
lwrist 4.92322
lhand -44.5464 34.5252
lfingers 7.12502
lthumb -17.3471 63.7711
rfemur 185.251 41.1449 -179.887
rtibia 31.8529
rfoot -6.9861 -50.3895
rtoes -17.7538
lfemur -16.1211 -4.09014 -13.6343
ltibia 36.3524
lfoot -28.3744 14.6176
ltoes -16.7673
